<svg width="900" height="250" viewBox="0 0 900 250" fill="none" xmlns="http://www.w3.org/2000/svg">
<rect width="900" height="250" rx="34" fill="#EAEEFF"/>
<mask id="mask0_3570_13" style="mask-type:alpha" maskUnits="userSpaceOnUse" x="125" y="37" width="175" height="175">
<path d="M212.5 212C260.825 212 300 172.825 300 124.5C300 76.1751 260.825 37 212.5 37C164.175 37 125 76.1751 125 124.5C125 172.825 164.175 212 212.5 212Z" fill="black"/>
</mask>
<g mask="url(#mask0_3570_13)">
<path d="M212.5 212C260.825 212 300 172.825 300 124.5C300 76.1751 260.825 37 212.5 37C164.175 37 125 76.1751 125 124.5C125 172.825 164.175 212 212.5 212Z" fill="black"/>
<path d="M270.355 190.144L192.221 89.5H177.5V159.471H189.277V104.456L261.11 197.266C264.352 195.097 267.439 192.716 270.355 190.144Z" fill="url(#paint0_linear_3570_13)"/>
<path d="M248.471 89.5H236.805V159.5H248.471V89.5Z" fill="url(#paint1_linear_3570_13)"/>
</g>
<path d="M404.286 119.286V85H415.714V119.286H450V130.714H415.714V165H404.286V130.714H370V119.286H404.286Z" fill="black"/>
<path d="M560.576 168.152C556.651 168.152 552.811 167.853 549.056 167.256C545.301 166.659 541.76 165.763 538.432 164.568C535.104 163.288 532.117 161.752 529.472 159.96C528.192 159.021 527.296 157.955 526.784 156.76C526.357 155.565 526.229 154.413 526.4 153.304C526.656 152.109 527.168 151.085 527.936 150.232C528.704 149.379 529.643 148.867 530.752 148.696C531.861 148.44 533.099 148.781 534.464 149.72C538.304 152.195 542.357 154.029 546.624 155.224C550.891 156.333 555.541 156.888 560.576 156.888C567.829 156.888 573.163 155.608 576.576 153.048C580.075 150.403 581.824 146.989 581.824 142.808C581.824 139.395 580.587 136.707 578.112 134.744C575.637 132.696 571.499 131.075 565.696 129.88L552 127.064C543.893 125.357 537.835 122.541 533.824 118.616C529.899 114.691 527.936 109.4 527.936 102.744C527.936 98.7333 528.747 95.064 530.368 91.736C532.075 88.408 534.421 85.5493 537.408 83.16C540.395 80.6853 543.979 78.808 548.16 77.528C552.341 76.248 556.907 75.608 561.856 75.608C567.147 75.608 572.096 76.2907 576.704 77.656C581.397 79.0213 585.579 81.112 589.248 83.928C590.357 84.696 591.083 85.6773 591.424 86.872C591.851 87.9813 591.936 89.0907 591.68 90.2C591.509 91.3093 591.04 92.248 590.272 93.016C589.504 93.784 588.523 94.2533 587.328 94.424C586.133 94.5093 584.811 94.0827 583.36 93.144C580.032 90.9253 576.619 89.3467 573.12 88.408C569.707 87.384 565.909 86.872 561.728 86.872C557.547 86.872 553.877 87.512 550.72 88.792C547.648 90.072 545.259 91.864 543.552 94.168C541.931 96.472 541.12 99.2027 541.12 102.36C541.12 105.944 542.272 108.803 544.576 110.936C546.88 113.069 550.72 114.691 556.096 115.8L569.664 118.616C578.197 120.408 584.555 123.181 588.736 126.936C592.917 130.691 595.008 135.683 595.008 141.912C595.008 145.923 594.197 149.549 592.576 152.792C590.955 155.949 588.651 158.68 585.664 160.984C582.677 163.288 579.051 165.08 574.784 166.36C570.603 167.555 565.867 168.152 560.576 168.152ZM617.289 167C614.985 167 613.193 166.403 611.913 165.208C610.718 163.928 610.121 162.136 610.121 159.832V83.928C610.121 81.624 610.718 79.8747 611.913 78.68C613.193 77.4 614.985 76.76 617.289 76.76H664.009C665.801 76.76 667.166 77.2293 668.105 78.168C669.044 79.0213 669.513 80.3013 669.513 82.008C669.513 83.8 669.044 85.1653 668.105 86.104C667.166 87.0427 665.801 87.512 664.009 87.512H622.921V115.8H661.193C663.07 115.8 664.436 116.269 665.289 117.208C666.228 118.147 666.697 119.469 666.697 121.176C666.697 122.968 666.228 124.333 665.289 125.272C664.436 126.125 663.07 126.552 661.193 126.552H622.921V156.248H664.009C665.801 156.248 667.166 156.717 668.105 157.656C669.044 158.595 669.513 159.917 669.513 161.624C669.513 163.416 669.044 164.781 668.105 165.72C667.166 166.573 665.801 167 664.009 167H617.289ZM724.414 168.152C715.881 168.152 708.414 166.275 702.014 162.52C695.699 158.68 690.793 153.304 687.294 146.392C683.881 139.395 682.174 131.203 682.174 121.816C682.174 114.733 683.155 108.376 685.118 102.744C687.081 97.0267 689.897 92.1627 693.566 88.152C697.235 84.056 701.673 80.9413 706.878 78.808C712.083 76.6747 717.929 75.608 724.414 75.608C733.033 75.608 740.499 77.4853 746.814 81.24C753.129 84.9947 757.993 90.328 761.406 97.24C764.905 104.152 766.654 112.301 766.654 121.688C766.654 128.771 765.673 135.171 763.71 140.888C761.747 146.605 758.889 151.512 755.134 155.608C751.465 159.704 747.027 162.819 741.822 164.952C736.617 167.085 730.814 168.152 724.414 168.152ZM724.414 156.632C730.387 156.632 735.465 155.267 739.646 152.536C743.913 149.805 747.155 145.837 749.374 140.632C751.678 135.427 752.83 129.155 752.83 121.816C752.83 110.808 750.355 102.275 745.406 96.216C740.457 90.1573 733.459 87.128 724.414 87.128C718.441 87.128 713.321 88.4933 709.054 91.224C704.873 93.8693 701.63 97.7947 699.326 103C697.107 108.205 695.998 114.477 695.998 121.816C695.998 132.739 698.473 141.272 703.422 147.416C708.457 153.56 715.454 156.632 724.414 156.632Z" fill="black"/>
<defs>
<linearGradient id="paint0_linear_3570_13" x1="230.972" y1="150.264" x2="265.486" y2="193.042" gradientUnits="userSpaceOnUse">
<stop stop-color="white"/>
<stop offset="1" stop-color="white" stop-opacity="0"/>
</linearGradient>
<linearGradient id="paint1_linear_3570_13" x1="242.638" y1="89.5" x2="242.443" y2="140.906" gradientUnits="userSpaceOnUse">
<stop stop-color="white"/>
<stop offset="1" stop-color="white" stop-opacity="0"/>
</linearGradient>
</defs>
</svg>
