<svg width="500" height="250" viewBox="0 0 500 250" fill="none" xmlns="http://www.w3.org/2000/svg">
<mask id="mask0_3570_13" style="mask-type:alpha" maskUnits="userSpaceOnUse" x="96" y="37" width="175" height="175">
<path d="M183.5 212C231.825 212 271 172.825 271 124.5C271 76.1751 231.825 37 183.5 37C135.175 37 96 76.1751 96 124.5C96 172.825 135.175 212 183.5 212Z" fill="black"/>
</mask>
<g mask="url(#mask0_3570_13)">
<path d="M183.5 212C231.825 212 271 172.825 271 124.5C271 76.1751 231.825 37 183.5 37C135.175 37 96 76.1751 96 124.5C96 172.825 135.175 212 183.5 212Z" fill="black"/>
<path d="M241.355 190.144L163.221 89.5H148.5V159.471H160.277V104.456L232.11 197.266C235.352 195.097 238.439 192.716 241.355 190.144Z" fill="url(#paint0_linear_3570_13)"/>
<path d="M219.471 89.5H207.805V159.5H219.471V89.5Z" fill="url(#paint1_linear_3570_13)"/>
</g>
<circle cx="315.5" cy="124.5" r="87.5" fill="black"/>
<path d="M283.8 141.45C282.233 141.45 280.717 141.317 279.25 141.05C277.783 140.817 276.4 140.45 275.1 139.95C273.8 139.45 272.633 138.833 271.6 138.1C271.167 137.8 270.85 137.433 270.65 137C270.483 136.567 270.433 136.15 270.5 135.75C270.6 135.317 270.783 134.95 271.05 134.65C271.35 134.35 271.7 134.167 272.1 134.1C272.5 134.033 272.933 134.167 273.4 134.5C274.933 135.533 276.533 136.283 278.2 136.75C279.9 137.217 281.767 137.45 283.8 137.45C286.733 137.45 288.883 136.917 290.25 135.85C291.65 134.783 292.35 133.383 292.35 131.65C292.35 130.217 291.85 129.1 290.85 128.3C289.85 127.467 288.167 126.817 285.8 126.35L280.5 125.25C277.367 124.583 275.017 123.483 273.45 121.95C271.917 120.417 271.15 118.367 271.15 115.8C271.15 114.233 271.467 112.817 272.1 111.55C272.733 110.25 273.633 109.133 274.8 108.2C275.967 107.267 277.333 106.55 278.9 106.05C280.5 105.55 282.267 105.3 284.2 105.3C286.267 105.3 288.2 105.583 290 106.15C291.833 106.717 293.483 107.55 294.95 108.65C295.35 108.95 295.617 109.317 295.75 109.75C295.883 110.15 295.9 110.55 295.8 110.95C295.733 111.35 295.55 111.683 295.25 111.95C294.983 112.217 294.633 112.367 294.2 112.4C293.8 112.433 293.35 112.283 292.85 111.95C291.517 111.017 290.15 110.35 288.75 109.95C287.35 109.517 285.817 109.3 284.15 109.3C282.45 109.3 280.967 109.567 279.7 110.1C278.467 110.633 277.5 111.383 276.8 112.35C276.133 113.283 275.8 114.383 275.8 115.65C275.8 117.183 276.267 118.383 277.2 119.25C278.133 120.117 279.7 120.783 281.9 121.25L287.15 122.3C290.483 123 292.95 124.083 294.55 125.55C296.183 126.983 297 128.917 297 131.35C297 132.883 296.683 134.267 296.05 135.5C295.45 136.733 294.583 137.8 293.45 138.7C292.317 139.567 290.933 140.25 289.3 140.75C287.667 141.217 285.833 141.45 283.8 141.45ZM305.658 141C304.858 141 304.242 140.783 303.808 140.35C303.375 139.917 303.158 139.3 303.158 138.5V108.25C303.158 107.45 303.375 106.833 303.808 106.4C304.242 105.967 304.858 105.75 305.658 105.75H324.058C324.692 105.75 325.175 105.917 325.508 106.25C325.875 106.55 326.058 107 326.058 107.6C326.058 108.233 325.875 108.717 325.508 109.05C325.175 109.383 324.692 109.55 324.058 109.55H307.658V121.2H323.008C323.642 121.2 324.125 121.367 324.458 121.7C324.792 122.033 324.958 122.5 324.958 123.1C324.958 123.733 324.792 124.217 324.458 124.55C324.125 124.85 323.642 125 323.008 125H307.658V137.2H324.058C324.692 137.2 325.175 137.367 325.508 137.7C325.875 138 326.058 138.467 326.058 139.1C326.058 139.733 325.875 140.217 325.508 140.55C325.175 140.85 324.692 141 324.058 141H305.658Z" fill="url(#paint2_linear_3570_13)"/>
<path d="M349.459 104.083C359.602 104.083 367.834 112.315 367.834 122.458C367.834 132.601 359.602 140.833 349.459 140.833C339.316 140.833 331.084 132.601 331.084 122.458C331.084 112.315 339.316 104.083 349.459 104.083ZM349.459 136.75C357.355 136.75 363.751 130.355 363.751 122.458C363.751 114.562 357.355 108.167 349.459 108.167C341.563 108.167 335.167 114.562 335.167 122.458C335.167 130.355 341.563 136.75 349.459 136.75ZM365.339 138.339C366.137 137.542 367.429 137.542 368.227 138.339L371.114 141.226C371.911 142.024 371.911 143.316 371.114 144.114V144.114C370.317 144.911 369.024 144.911 368.227 144.114L365.339 141.226C364.542 140.429 364.542 139.136 365.339 138.339V138.339Z" fill="url(#paint3_linear_3570_13)"/>
<defs>
<linearGradient id="paint0_linear_3570_13" x1="201.972" y1="150.264" x2="236.486" y2="193.042" gradientUnits="userSpaceOnUse">
<stop stop-color="white"/>
<stop offset="1" stop-color="white" stop-opacity="0"/>
</linearGradient>
<linearGradient id="paint1_linear_3570_13" x1="213.638" y1="89.5" x2="213.443" y2="140.906" gradientUnits="userSpaceOnUse">
<stop stop-color="white"/>
<stop offset="1" stop-color="white" stop-opacity="0"/>
</linearGradient>
<linearGradient id="paint2_linear_3570_13" x1="298.5" y1="91" x2="365" y2="225.5" gradientUnits="userSpaceOnUse">
<stop stop-color="white"/>
<stop offset="1" stop-color="white" stop-opacity="0"/>
</linearGradient>
<linearGradient id="paint3_linear_3570_13" x1="351.821" y1="104.083" x2="351.821" y2="145.557" gradientUnits="userSpaceOnUse">
<stop stop-color="white"/>
<stop offset="1" stop-color="white" stop-opacity="0.42"/>
</linearGradient>
</defs>
</svg>
